<?xml version="1.0" encoding="UTF-8" standalone="no"?>
<!DOCTYPE svg PUBLIC "-//W3C//DTD SVG 1.0//EN" "http://www.w3.org/TR/2001/REC-SVG-20010904/DTD/svg10.dtd">
<!-- Generated by dot version 2.8 (Sat Jul  8 16:29:45 UTC 2006)
     For user: (d0ktorz)  -->
<!-- Title: Trie Pages: 1 -->
<svg width="334" height="476" xmlns="http://www.w3.org/2000/svg" xmlns:xlink="http://www.w3.org/1999/xlink">
<g id="graph0" class="graph" style="font-family:Times-Roman;font-size:14.00;">

<g id="node1" class="node">
<ellipse style="fill:none;stroke:black;" cx="112" cy="28" rx="23" ry="23"/>
</g>
<!-- J -->
<g id="node2" class="node">
<ellipse style="fill:none;stroke:black;" cx="61" cy="128" rx="23" ry="23"/>
<text text-anchor="middle" x="61" y="133">J</text>
</g>
<!-- &#45;&gt;J -->
<g id="edge2" class="edge">
<path style="fill:none;stroke:black;" d="M100,48C95,55 91,63 87,70 83,79 78,88 74,97"/>
<polygon style="fill:black;stroke:black;" points="77,98 70,106 71,95 77,98"/>
<text text-anchor="middle" x="95" y="83"> J</text>
</g>
<!-- R -->
<g id="node5" class="node">
<ellipse style="fill:none;stroke:black;" cx="166" cy="128" rx="23" ry="23"/>
<text text-anchor="middle" x="166" y="133">R</text>
</g>
<!-- &#45;&gt;R -->
<g id="edge4" class="edge">
<path style="fill:none;stroke:black;" d="M123,49C131,63 142,82 150,98"/>
<polygon style="fill:black;stroke:black;" points="153,97 155,107 147,100 153,97"/>
<text text-anchor="middle" x="148" y="83"> R</text>
</g>
<!-- foo -->
<g id="node33" class="node">
</g>
<!-- &#45;&gt;foo -->
<g id="edge34" class="edge">
</g>
<!-- Ja -->
<g id="node3" class="node">
<ellipse style="fill:none;stroke:black;" cx="45" cy="230" rx="23" ry="23"/>
<text text-anchor="middle" x="45" y="235">Ja</text>
</g>
<!-- J&#45;&gt;Ja -->
<g id="edge6" class="edge">
<path style="fill:none;stroke:black;" d="M57,151C55,165 52,182 50,196"/>
<polygon style="fill:black;stroke:black;" points="53,196 49,206 47,196 53,196"/>
<text text-anchor="middle" x="61" y="183"> a</text>
</g>
<!-- J&#45;&gt;foo -->
<g id="edge38" class="edge">
</g>
<!-- Jav -->
<g id="node4" class="node">
<ellipse style="fill:none;stroke:black;" cx="27" cy="336" rx="23" ry="23"/>
<text text-anchor="middle" x="27" y="341">Jav</text>
</g>
<!-- Ja&#45;&gt;Jav -->
<g id="edge8" class="edge">
<path style="fill:none;stroke:black;" d="M41,253C39,268 35,287 33,303"/>
<polygon style="fill:black;stroke:black;" points="36,304 31,313 30,303 36,304"/>
<text text-anchor="middle" x="43" y="287">v</text>
</g>
<!-- Rad -->
<g id="node11" class="node">
<ellipse style="fill:none;stroke:black;" cx="95" cy="336" rx="23" ry="23"/>
<ellipse style="fill:none;stroke:black;" cx="95" cy="336" rx="27" ry="27"/>
<text text-anchor="middle" x="95" y="341">Rad</text>
</g>
<!-- Ja&#45;&gt;Rad -->
<g id="edge30" class="edge">
</g>
<!-- Java -->
<g id="node10" class="node">
<ellipse style="fill:none;stroke:black;" cx="67" cy="444" rx="23" ry="23"/>
<ellipse style="fill:none;stroke:black;" cx="67" cy="444" rx="27" ry="27"/>
<text text-anchor="middle" x="67" y="449">Java</text>
</g>
<!-- Jav&#45;&gt;Java -->
<g id="edge10" class="edge">
<path style="fill:none;stroke:black;" d="M35,358C41,373 48,392 54,408"/>
<polygon style="fill:black;stroke:black;" points="57,407 57,418 51,409 57,407"/>
<text text-anchor="middle" x="56" y="395"> a</text>
</g>
<!-- Ra -->
<g id="node6" class="node">
<ellipse style="fill:none;stroke:black;" cx="177" cy="230" rx="23" ry="23"/>
<text text-anchor="middle" x="177" y="235">Ra</text>
</g>
<!-- R&#45;&gt;Ra -->
<g id="edge12" class="edge">
<path style="fill:none;stroke:black;" d="M169,151C171,165 172,182 174,196"/>
<polygon style="fill:black;stroke:black;" points="177,196 175,206 171,196 177,196"/>
<text text-anchor="middle" x="178" y="183">  a</text>
</g>
<!-- Ro -->
<g id="node8" class="node">
<ellipse style="fill:none;stroke:black;" cx="264" cy="230" rx="23" ry="23"/>
<text text-anchor="middle" x="264" y="235">Ro</text>
</g>
<!-- R&#45;&gt;Ro -->
<g id="edge24" class="edge">
<path style="fill:none;stroke:black;" d="M182,145C198,162 223,187 241,205"/>
<polygon style="fill:black;stroke:black;" points="244,203 248,213 239,208 244,203"/>
<text text-anchor="middle" x="225" y="183"> o</text>
</g>
<!-- R&#45;&gt;foo -->
<g id="edge36" class="edge">
</g>
<!-- Ran -->
<g id="node7" class="node">
<ellipse style="fill:none;stroke:black;" cx="163" cy="336" rx="23" ry="23"/>
<text text-anchor="middle" x="163" y="341">Ran</text>
</g>
<!-- Ra&#45;&gt;Ran -->
<g id="edge16" class="edge">
<path style="fill:none;stroke:black;" d="M174,254C172,268 170,287 168,303"/>
<polygon style="fill:black;stroke:black;" points="171,304 166,313 165,303 171,304"/>
<text text-anchor="middle" x="177" y="287">  n</text>
</g>
<!-- Ra&#45;&gt;Rad -->
<g id="edge14" class="edge">
<path style="fill:none;stroke:black;" d="M163,248C151,264 133,288 118,306"/>
<polygon style="fill:black;stroke:black;" points="121,308 112,314 115,304 121,308"/>
<text text-anchor="middle" x="148" y="287"> d</text>
</g>
<!-- Rau -->
<g id="node13" class="node">
<ellipse style="fill:none;stroke:black;" cx="231" cy="336" rx="23" ry="23"/>
<ellipse style="fill:none;stroke:black;" cx="231" cy="336" rx="27" ry="27"/>
<text text-anchor="middle" x="231" y="341">Rau</text>
</g>
<!-- Ra&#45;&gt;Rau -->
<g id="edge20" class="edge">
<path style="fill:none;stroke:black;" d="M188,251C195,265 205,285 213,302"/>
<polygon style="fill:black;stroke:black;" points="216,301 218,311 210,304 216,301"/>
<text text-anchor="middle" x="213" y="287">  u</text>
</g>
<!-- Rand -->
<g id="node12" class="node">
<ellipse style="fill:none;stroke:black;" cx="159" cy="444" rx="23" ry="23"/>
<ellipse style="fill:none;stroke:black;" cx="159" cy="444" rx="27" ry="27"/>
<text text-anchor="middle" x="159" y="449">Rand</text>
</g>
<!-- Ran&#45;&gt;Rand -->
<g id="edge18" class="edge">
<path style="fill:none;stroke:black;" d="M162,360C161,373 161,391 160,406"/>
<polygon style="fill:black;stroke:black;" points="164,406 160,416 157,406 164,406"/>
<text text-anchor="middle" x="169" y="395">  d</text>
</g>
<!-- Ros -->
<g id="node9" class="node">
<ellipse style="fill:none;stroke:black;" cx="301" cy="336" rx="23" ry="23"/>
<text text-anchor="middle" x="301" y="341">Ros</text>
</g>
<!-- Ro&#45;&gt;Ros -->
<g id="edge26" class="edge">
<path style="fill:none;stroke:black;" d="M272,252C277,267 284,287 290,304"/>
<polygon style="fill:black;stroke:black;" points="293,303 293,314 287,305 293,303"/>
<text text-anchor="middle" x="289" y="287">  s</text>
</g>
<!-- Rose -->
<g id="node15" class="node">
<ellipse style="fill:none;stroke:black;" cx="303" cy="444" rx="23" ry="23"/>
<ellipse style="fill:none;stroke:black;" cx="303" cy="444" rx="27" ry="27"/>
<text text-anchor="middle" x="303" y="449">Rose</text>
</g>
<!-- Ros&#45;&gt;Rose -->
<g id="edge28" class="edge">
<path style="fill:none;stroke:black;" d="M301,360C302,373 302,391 302,406"/>
<polygon style="fill:black;stroke:black;" points="306,406 302,416 299,406 306,406"/>
<text text-anchor="middle" x="310" y="395">   e</text>
</g>
<!-- Rad&#45;&gt;Java -->
<g id="edge32" class="edge">
</g>
<!-- Raum -->
<g id="node14" class="node">
<ellipse style="fill:none;stroke:black;" cx="231" cy="444" rx="23" ry="23"/>
<ellipse style="fill:none;stroke:black;" cx="231" cy="444" rx="27" ry="27"/>
<text text-anchor="middle" x="231" y="449">Raum</text>
</g>
<!-- Rau&#45;&gt;Raum -->
<g id="edge22" class="edge">
<path style="fill:none;stroke:black;" d="M231,364C231,377 231,392 231,406"/>
<polygon style="fill:black;stroke:black;" points="235,406 231,416 228,406 235,406"/>
<text text-anchor="middle" x="241" y="395">  m</text>
</g>
</g>
</svg>